<svg xmlns="http://www.w3.org/2000/svg" viewBox="0 0 128 128">
  <defs>
    <linearGradient id="grad" x1="0%" y1="0%" x2="100%" y2="100%">
      <stop offset="0%" stop-color="#6366f1" />
      <stop offset="100%" stop-color="#a855f7" />
    </linearGradient>
  </defs>
  <rect width="128" height="128" rx="28" fill="url(#grad)" />
  <path
    d="M64 34c14.4 0 25 8.8 25 22.3 0 8.2-4.2 14.7-11.6 18l11.6 19.7H74.2l-9.3-17.3h-0.2l-9.2 17.3H39l11.4-19.7C43 71 39 64.4 39 56.3 39 42.8 49.6 34 64 34Zm0 13.3c-7 0-11.7 4-11.7 9.6 0 5.5 4.7 9.5 11.7 9.5s11.7-4 11.7-9.5c0-5.6-4.7-9.6-11.7-9.6Z"
    fill="#fff"
  />
</svg>
